<svg width="210" height="117" viewBox="0 0 210 117" fill="none" xmlns="http://www.w3.org/2000/svg">
<rect x="1" y="1" width="208" height="115" rx="7" fill="white"/>
<rect x="1" y="1" width="208" height="115" rx="7" stroke="url(#paint0_linear_4561_7099)" stroke-width="2"/>
<path d="M52.972 36.944V31.22H62.944V57.5H56.536V36.944H52.972ZM67.1552 44C67.1552 39.872 67.9472 36.62 69.5312 34.244C71.1392 31.868 73.7192 30.68 77.2712 30.68C80.8232 30.68 83.3912 31.868 84.9752 34.244C86.5832 36.62 87.3872 39.872 87.3872 44C87.3872 48.176 86.5832 51.452 84.9752 53.828C83.3912 56.204 80.8232 57.392 77.2712 57.392C73.7192 57.392 71.1392 56.204 69.5312 53.828C67.9472 51.452 67.1552 48.176 67.1552 44ZM81.3392 44C81.3392 41.576 81.0752 39.716 80.5472 38.42C80.0192 37.1 78.9272 36.44 77.2712 36.44C75.6152 36.44 74.5232 37.1 73.9952 38.42C73.4672 39.716 73.2032 41.576 73.2032 44C73.2032 45.632 73.2992 46.988 73.4912 48.068C73.6832 49.124 74.0672 49.988 74.6432 50.66C75.2432 51.308 76.1192 51.632 77.2712 51.632C78.4232 51.632 79.2872 51.308 79.8632 50.66C80.4632 49.988 80.8592 49.124 81.0512 48.068C81.2432 46.988 81.3392 45.632 81.3392 44ZM90.6395 44C90.6395 39.872 91.4315 36.62 93.0155 34.244C94.6235 31.868 97.2035 30.68 100.756 30.68C104.308 30.68 106.876 31.868 108.46 34.244C110.068 36.62 110.872 39.872 110.872 44C110.872 48.176 110.068 51.452 108.46 53.828C106.876 56.204 104.308 57.392 100.756 57.392C97.2035 57.392 94.6235 56.204 93.0155 53.828C91.4315 51.452 90.6395 48.176 90.6395 44ZM104.824 44C104.824 41.576 104.56 39.716 104.032 38.42C103.504 37.1 102.412 36.44 100.756 36.44C99.0995 36.44 98.0075 37.1 97.4795 38.42C96.9515 39.716 96.6875 41.576 96.6875 44C96.6875 45.632 96.7835 46.988 96.9755 48.068C97.1675 49.124 97.5515 49.988 98.1275 50.66C98.7275 51.308 99.6035 51.632 100.756 51.632C101.908 51.632 102.772 51.308 103.348 50.66C103.948 49.988 104.344 49.124 104.536 48.068C104.728 46.988 104.824 45.632 104.824 44ZM127.012 57.5L120.892 49.076V57.5H114.736V30.86H120.892V45.584L126.976 37.412H134.572L126.22 47.492L134.644 57.5H127.012ZM155.242 47.672H148.978V54.08H143.146V47.672H136.882V42.164H143.146V35.72H148.978V42.164H155.242V47.672Z" fill="#451A83"/>
<path d="M45.268 93.612C44.532 93.612 43.8707 93.484 43.284 93.228C42.708 92.9613 42.2547 92.5987 41.924 92.14C41.5933 91.6707 41.4227 91.132 41.412 90.524H42.964C43.0173 91.0467 43.2307 91.4893 43.604 91.852C43.988 92.204 44.5427 92.38 45.268 92.38C45.9613 92.38 46.5053 92.2093 46.9 91.868C47.3053 91.516 47.508 91.068 47.508 90.524C47.508 90.0973 47.3907 89.7507 47.156 89.484C46.9213 89.2173 46.628 89.0147 46.276 88.876C45.924 88.7373 45.4493 88.588 44.852 88.428C44.116 88.236 43.524 88.044 43.076 87.852C42.6387 87.66 42.26 87.3613 41.94 86.956C41.6307 86.54 41.476 85.9853 41.476 85.292C41.476 84.684 41.6307 84.1453 41.94 83.676C42.2493 83.2067 42.6813 82.844 43.236 82.588C43.8013 82.332 44.4467 82.204 45.172 82.204C46.2173 82.204 47.0707 82.4653 47.732 82.988C48.404 83.5107 48.7827 84.204 48.868 85.068H47.268C47.2147 84.6413 46.9907 84.268 46.596 83.948C46.2013 83.6173 45.6787 83.452 45.028 83.452C44.42 83.452 43.924 83.612 43.54 83.932C43.156 84.2413 42.964 84.6787 42.964 85.244C42.964 85.6493 43.076 85.98 43.3 86.236C43.5347 86.492 43.8173 86.6893 44.148 86.828C44.4893 86.956 44.964 87.1053 45.572 87.276C46.308 87.4787 46.9 87.6813 47.348 87.884C47.796 88.076 48.18 88.38 48.5 88.796C48.82 89.2013 48.98 89.756 48.98 90.46C48.98 91.004 48.836 91.516 48.548 91.996C48.26 92.476 47.8333 92.8653 47.268 93.164C46.7027 93.4627 46.036 93.612 45.268 93.612ZM52.8986 85.932V91.1C52.8986 91.5267 52.9893 91.8307 53.1706 92.012C53.352 92.1827 53.6666 92.268 54.1146 92.268H55.1866V93.5H53.8746C53.064 93.5 52.456 93.3133 52.0506 92.94C51.6453 92.5667 51.4426 91.9533 51.4426 91.1V85.932H50.3066V84.732H51.4426V82.524H52.8986V84.732H55.1866V85.932H52.8986ZM64.7268 84.732V93.5H63.2708V92.204C62.9934 92.652 62.6041 93.004 62.1028 93.26C61.6121 93.5053 61.0681 93.628 60.4708 93.628C59.7881 93.628 59.1748 93.4893 58.6308 93.212C58.0868 92.924 57.6548 92.4973 57.3348 91.932C57.0254 91.3667 56.8708 90.6787 56.8708 89.868V84.732H58.3108V89.676C58.3108 90.54 58.5294 91.2067 58.9668 91.676C59.4041 92.1347 60.0014 92.364 60.7588 92.364C61.5374 92.364 62.1508 92.124 62.5988 91.644C63.0468 91.164 63.2708 90.4653 63.2708 89.548V84.732H64.7268ZM66.6411 89.084C66.6411 88.188 66.8225 87.404 67.1851 86.732C67.5478 86.0493 68.0438 85.5213 68.6731 85.148C69.3131 84.7747 70.0278 84.588 70.8171 84.588C71.4998 84.588 72.1345 84.748 72.7211 85.068C73.3078 85.3773 73.7558 85.788 74.0651 86.3V81.66H75.5371V93.5H74.0651V91.852C73.7771 92.3747 73.3505 92.8067 72.7851 93.148C72.2198 93.4787 71.5585 93.644 70.8011 93.644C70.0225 93.644 69.3131 93.452 68.6731 93.068C68.0438 92.684 67.5478 92.1453 67.1851 91.452C66.8225 90.7587 66.6411 89.9693 66.6411 89.084ZM74.0651 89.1C74.0651 88.4387 73.9318 87.8627 73.6651 87.372C73.3985 86.8813 73.0358 86.508 72.5771 86.252C72.1291 85.9853 71.6331 85.852 71.0891 85.852C70.5451 85.852 70.0491 85.98 69.6011 86.236C69.1531 86.492 68.7958 86.8653 68.5291 87.356C68.2625 87.8467 68.1291 88.4227 68.1291 89.084C68.1291 89.756 68.2625 90.3427 68.5291 90.844C68.7958 91.3347 69.1531 91.7133 69.6011 91.98C70.0491 92.236 70.5451 92.364 71.0891 92.364C71.6331 92.364 72.1291 92.236 72.5771 91.98C73.0358 91.7133 73.3985 91.3347 73.6651 90.844C73.9318 90.3427 74.0651 89.7613 74.0651 89.1ZM85.9976 88.78C85.9976 89.0573 85.9816 89.3507 85.9496 89.66H78.9416C78.995 90.524 79.2883 91.2013 79.8216 91.692C80.3656 92.172 81.0216 92.412 81.7896 92.412C82.419 92.412 82.9416 92.268 83.3576 91.98C83.7843 91.6813 84.083 91.2867 84.2536 90.796H85.8216C85.587 91.6387 85.1176 92.3267 84.4136 92.86C83.7096 93.3827 82.835 93.644 81.7896 93.644C80.9576 93.644 80.211 93.4573 79.5496 93.084C78.899 92.7107 78.387 92.1827 78.0136 91.5C77.6403 90.8067 77.4536 90.0067 77.4536 89.1C77.4536 88.1933 77.635 87.3987 77.9976 86.716C78.3603 86.0333 78.867 85.5107 79.5176 85.148C80.179 84.7747 80.9363 84.588 81.7896 84.588C82.6216 84.588 83.3576 84.7693 83.9976 85.132C84.6376 85.4947 85.1283 85.996 85.4696 86.636C85.8216 87.2653 85.9976 87.98 85.9976 88.78ZM84.4936 88.476C84.4936 87.9213 84.371 87.4467 84.1256 87.052C83.8803 86.6467 83.5443 86.3427 83.1176 86.14C82.7016 85.9267 82.2376 85.82 81.7256 85.82C80.9896 85.82 80.3603 86.0547 79.8376 86.524C79.3256 86.9933 79.0323 87.644 78.9576 88.476H84.4936ZM92.1915 84.572C93.2582 84.572 94.1222 84.8973 94.7835 85.548C95.4448 86.188 95.7755 87.116 95.7755 88.332V93.5H94.3355V88.54C94.3355 87.6653 94.1168 86.9987 93.6795 86.54C93.2422 86.0707 92.6448 85.836 91.8875 85.836C91.1195 85.836 90.5062 86.076 90.0475 86.556C89.5995 87.036 89.3755 87.7347 89.3755 88.652V93.5H87.9195V84.732H89.3755V85.98C89.6635 85.532 90.0528 85.1853 90.5435 84.94C91.0448 84.6947 91.5942 84.572 92.1915 84.572ZM99.9299 85.932V91.1C99.9299 91.5267 100.021 91.8307 100.202 92.012C100.383 92.1827 100.698 92.268 101.146 92.268H102.218V93.5H100.906C100.095 93.5 99.4872 93.3133 99.0819 92.94C98.6765 92.5667 98.4739 91.9533 98.4739 91.1V85.932H97.3379V84.732H98.4739V82.524H99.9299V84.732H102.218V85.932H99.9299ZM107.086 93.644C106.414 93.644 105.811 93.532 105.278 93.308C104.745 93.0733 104.323 92.7533 104.014 92.348C103.705 91.932 103.534 91.4573 103.502 90.924H105.006C105.049 91.3613 105.251 91.7187 105.614 91.996C105.987 92.2733 106.473 92.412 107.07 92.412C107.625 92.412 108.062 92.2893 108.382 92.044C108.702 91.7987 108.862 91.4893 108.862 91.116C108.862 90.732 108.691 90.4493 108.35 90.268C108.009 90.076 107.481 89.8893 106.766 89.708C106.115 89.5373 105.582 89.3667 105.166 89.196C104.761 89.0147 104.409 88.7533 104.11 88.412C103.822 88.06 103.678 87.6013 103.678 87.036C103.678 86.588 103.811 86.1773 104.078 85.804C104.345 85.4307 104.723 85.1373 105.214 84.924C105.705 84.7 106.265 84.588 106.894 84.588C107.865 84.588 108.649 84.8333 109.246 85.324C109.843 85.8147 110.163 86.4867 110.206 87.34H108.75C108.718 86.8813 108.531 86.5133 108.19 86.236C107.859 85.9587 107.411 85.82 106.846 85.82C106.323 85.82 105.907 85.932 105.598 86.156C105.289 86.38 105.134 86.6733 105.134 87.036C105.134 87.324 105.225 87.564 105.406 87.756C105.598 87.9373 105.833 88.0867 106.11 88.204C106.398 88.3107 106.793 88.4333 107.294 88.572C107.923 88.7427 108.435 88.9133 108.83 89.084C109.225 89.244 109.561 89.4893 109.838 89.82C110.126 90.1507 110.275 90.5827 110.286 91.116C110.286 91.596 110.153 92.028 109.886 92.412C109.619 92.796 109.241 93.1 108.75 93.324C108.27 93.5373 107.715 93.644 107.086 93.644ZM118.383 85.932V91.1C118.383 91.5267 118.474 91.8307 118.655 92.012C118.836 92.1827 119.151 92.268 119.599 92.268H120.671V93.5H119.359C118.548 93.5 117.94 93.3133 117.535 92.94C117.13 92.5667 116.927 91.9533 116.927 91.1V85.932H115.791V84.732H116.927V82.524H118.383V84.732H120.671V85.932H118.383ZM121.891 89.084C121.891 88.188 122.072 87.404 122.435 86.732C122.798 86.0493 123.294 85.5213 123.923 85.148C124.563 84.7747 125.272 84.588 126.051 84.588C126.819 84.588 127.486 84.7533 128.051 85.084C128.616 85.4147 129.038 85.8307 129.315 86.332V84.732H130.787V93.5H129.315V91.868C129.027 92.38 128.595 92.8067 128.019 93.148C127.454 93.4787 126.792 93.644 126.035 93.644C125.256 93.644 124.552 93.452 123.923 93.068C123.294 92.684 122.798 92.1453 122.435 91.452C122.072 90.7587 121.891 89.9693 121.891 89.084ZM129.315 89.1C129.315 88.4387 129.182 87.8627 128.915 87.372C128.648 86.8813 128.286 86.508 127.827 86.252C127.379 85.9853 126.883 85.852 126.339 85.852C125.795 85.852 125.299 85.98 124.851 86.236C124.403 86.492 124.046 86.8653 123.779 87.356C123.512 87.8467 123.379 88.4227 123.379 89.084C123.379 89.756 123.512 90.3427 123.779 90.844C124.046 91.3347 124.403 91.7133 124.851 91.98C125.299 92.236 125.795 92.364 126.339 92.364C126.883 92.364 127.379 92.236 127.827 91.98C128.286 91.7133 128.648 91.3347 128.915 90.844C129.182 90.3427 129.315 89.7613 129.315 89.1ZM141.024 84.732V93.5H139.568V92.204C139.29 92.652 138.901 93.004 138.4 93.26C137.909 93.5053 137.365 93.628 136.768 93.628C136.085 93.628 135.472 93.4893 134.928 93.212C134.384 92.924 133.952 92.4973 133.632 91.932C133.322 91.3667 133.168 90.6787 133.168 89.868V84.732H134.608V89.676C134.608 90.54 134.826 91.2067 135.264 91.676C135.701 92.1347 136.298 92.364 137.056 92.364C137.834 92.364 138.448 92.124 138.896 91.644C139.344 91.164 139.568 90.4653 139.568 89.548V84.732H141.024ZM147.098 84.588C147.855 84.588 148.517 84.7533 149.082 85.084C149.658 85.4147 150.085 85.8307 150.362 86.332V84.732H151.834V93.692C151.834 94.492 151.663 95.2013 151.322 95.82C150.981 96.4493 150.49 96.94 149.85 97.292C149.221 97.644 148.485 97.82 147.642 97.82C146.49 97.82 145.53 97.548 144.762 97.004C143.994 96.46 143.541 95.7187 143.402 94.78H144.842C145.002 95.3133 145.333 95.74 145.834 96.06C146.335 96.3907 146.938 96.556 147.642 96.556C148.442 96.556 149.093 96.3053 149.594 95.804C150.106 95.3027 150.362 94.5987 150.362 93.692V91.852C150.074 92.364 149.647 92.7907 149.082 93.132C148.517 93.4733 147.855 93.644 147.098 93.644C146.319 93.644 145.61 93.452 144.97 93.068C144.341 92.684 143.845 92.1453 143.482 91.452C143.119 90.7587 142.938 89.9693 142.938 89.084C142.938 88.188 143.119 87.404 143.482 86.732C143.845 86.0493 144.341 85.5213 144.97 85.148C145.61 84.7747 146.319 84.588 147.098 84.588ZM150.362 89.1C150.362 88.4387 150.229 87.8627 149.962 87.372C149.695 86.8813 149.333 86.508 148.874 86.252C148.426 85.9853 147.93 85.852 147.386 85.852C146.842 85.852 146.346 85.98 145.898 86.236C145.45 86.492 145.093 86.8653 144.826 87.356C144.559 87.8467 144.426 88.4227 144.426 89.084C144.426 89.756 144.559 90.3427 144.826 90.844C145.093 91.3347 145.45 91.7133 145.898 91.98C146.346 92.236 146.842 92.364 147.386 92.364C147.93 92.364 148.426 92.236 148.874 91.98C149.333 91.7133 149.695 91.3347 149.962 90.844C150.229 90.3427 150.362 89.7613 150.362 89.1ZM158.647 84.572C159.308 84.572 159.905 84.716 160.439 85.004C160.972 85.2813 161.388 85.7027 161.687 86.268C161.996 86.8333 162.151 87.5213 162.151 88.332V93.5H160.711V88.54C160.711 87.6653 160.492 86.9987 160.055 86.54C159.617 86.0707 159.02 85.836 158.263 85.836C157.495 85.836 156.881 86.076 156.423 86.556C155.975 87.036 155.751 87.7347 155.751 88.652V93.5H154.295V81.66H155.751V85.98C156.039 85.532 156.433 85.1853 156.935 84.94C157.447 84.6947 158.017 84.572 158.647 84.572ZM166.305 85.932V91.1C166.305 91.5267 166.396 91.8307 166.577 92.012C166.758 92.1827 167.073 92.268 167.521 92.268H168.593V93.5H167.281C166.47 93.5 165.862 93.3133 165.457 92.94C165.052 92.5667 164.849 91.9533 164.849 91.1V85.932H163.713V84.732H164.849V82.524H166.305V84.732H168.593V85.932H166.305Z" fill="#313033"/>
<defs>
<linearGradient id="paint0_linear_4561_7099" x1="0" y1="58.5" x2="210" y2="58.5" gradientUnits="userSpaceOnUse">
<stop stop-color="#7D2F99"/>
<stop offset="0.27" stop-color="#FF5FCC"/>
<stop offset="0.53" stop-color="#451A83"/>
<stop offset="0.8" stop-color="#B543AF"/>
<stop offset="1" stop-color="#451A83"/>
</linearGradient>
</defs>
</svg>
