<svg width="183" height="102" viewBox="0 0 183 102" fill="none" xmlns="http://www.w3.org/2000/svg">
<rect x="1" y="1" width="181" height="100" rx="7" fill="white"/>
<rect x="1" y="1" width="181" height="100" rx="7" stroke="url(#paint0_linear_4561_7108)" stroke-width="2"/>
<path d="M54.67 43.39C55.35 42.85 55.66 42.6 55.6 42.64C57.56 41.02 59.1 39.69 60.22 38.65C61.36 37.61 62.32 36.52 63.1 35.38C63.88 34.24 64.27 33.13 64.27 32.05C64.27 31.23 64.08 30.59 63.7 30.13C63.32 29.67 62.75 29.44 61.99 29.44C61.23 29.44 60.63 29.73 60.19 30.31C59.77 30.87 59.56 31.67 59.56 32.71H54.61C54.65 31.01 55.01 29.59 55.69 28.45C56.39 27.31 57.3 26.47 58.42 25.93C59.56 25.39 60.82 25.12 62.2 25.12C64.58 25.12 66.37 25.73 67.57 26.95C68.79 28.17 69.4 29.76 69.4 31.72C69.4 33.86 68.67 35.85 67.21 37.69C65.75 39.51 63.89 41.29 61.63 43.03H69.73V47.2H54.67V43.39ZM71.9887 36.25C71.9887 32.81 72.6487 30.1 73.9687 28.12C75.3087 26.14 77.4587 25.15 80.4187 25.15C83.3787 25.15 85.5187 26.14 86.8387 28.12C88.1787 30.1 88.8487 32.81 88.8487 36.25C88.8487 39.73 88.1787 42.46 86.8387 44.44C85.5187 46.42 83.3787 47.41 80.4187 47.41C77.4587 47.41 75.3087 46.42 73.9687 44.44C72.6487 42.46 71.9887 39.73 71.9887 36.25ZM83.8087 36.25C83.8087 34.23 83.5887 32.68 83.1487 31.6C82.7087 30.5 81.7987 29.95 80.4187 29.95C79.0387 29.95 78.1287 30.5 77.6887 31.6C77.2487 32.68 77.0287 34.23 77.0287 36.25C77.0287 37.61 77.1087 38.74 77.2687 39.64C77.4287 40.52 77.7487 41.24 78.2287 41.8C78.7287 42.34 79.4587 42.61 80.4187 42.61C81.3787 42.61 82.0987 42.34 82.5787 41.8C83.0787 41.24 83.4087 40.52 83.5687 39.64C83.7287 38.74 83.8087 37.61 83.8087 36.25ZM91.559 36.25C91.559 32.81 92.219 30.1 93.539 28.12C94.879 26.14 97.029 25.15 99.989 25.15C102.949 25.15 105.089 26.14 106.409 28.12C107.749 30.1 108.419 32.81 108.419 36.25C108.419 39.73 107.749 42.46 106.409 44.44C105.089 46.42 102.949 47.41 99.989 47.41C97.029 47.41 94.879 46.42 93.539 44.44C92.219 42.46 91.559 39.73 91.559 36.25ZM103.379 36.25C103.379 34.23 103.159 32.68 102.719 31.6C102.279 30.5 101.369 29.95 99.989 29.95C98.609 29.95 97.699 30.5 97.259 31.6C96.819 32.68 96.599 34.23 96.599 36.25C96.599 37.61 96.679 38.74 96.839 39.64C96.999 40.52 97.319 41.24 97.799 41.8C98.299 42.34 99.029 42.61 99.989 42.61C100.949 42.61 101.669 42.34 102.149 41.8C102.649 41.24 102.979 40.52 103.139 39.64C103.299 38.74 103.379 37.61 103.379 36.25ZM111.129 36.25C111.129 32.81 111.789 30.1 113.109 28.12C114.449 26.14 116.599 25.15 119.559 25.15C122.519 25.15 124.659 26.14 125.979 28.12C127.319 30.1 127.989 32.81 127.989 36.25C127.989 39.73 127.319 42.46 125.979 44.44C124.659 46.42 122.519 47.41 119.559 47.41C116.599 47.41 114.449 46.42 113.109 44.44C111.789 42.46 111.129 39.73 111.129 36.25ZM122.949 36.25C122.949 34.23 122.729 32.68 122.289 31.6C121.849 30.5 120.939 29.95 119.559 29.95C118.179 29.95 117.269 30.5 116.829 31.6C116.389 32.68 116.169 34.23 116.169 36.25C116.169 37.61 116.249 38.74 116.409 39.64C116.569 40.52 116.889 41.24 117.369 41.8C117.869 42.34 118.599 42.61 119.559 42.61C120.519 42.61 121.239 42.34 121.719 41.8C122.219 41.24 122.549 40.52 122.709 39.64C122.869 38.74 122.949 37.61 122.949 36.25Z" fill="#451A83"/>
<path d="M48.348 70.348V78.588C48.348 79.5053 48.0653 80.2413 47.5 80.796C46.9347 81.34 46.188 81.612 45.26 81.612C44.3213 81.612 43.5693 81.3347 43.004 80.78C42.4387 80.2147 42.156 79.4467 42.156 78.476H43.612C43.6227 79.02 43.7613 79.4627 44.028 79.804C44.3053 80.1453 44.716 80.316 45.26 80.316C45.804 80.316 46.2093 80.156 46.476 79.836C46.7427 79.5053 46.876 79.0893 46.876 78.588V70.348H48.348ZM55.0404 81.644C54.219 81.644 53.4724 81.4573 52.8004 81.084C52.139 80.7107 51.6164 80.1827 51.2324 79.5C50.859 78.8067 50.6724 78.0067 50.6724 77.1C50.6724 76.204 50.8644 75.4147 51.2484 74.732C51.643 74.0387 52.1764 73.5107 52.8484 73.148C53.5204 72.7747 54.2724 72.588 55.1044 72.588C55.9364 72.588 56.6884 72.7747 57.3604 73.148C58.0324 73.5107 58.5604 74.0333 58.9444 74.716C59.339 75.3987 59.5364 76.1933 59.5364 77.1C59.5364 78.0067 59.3337 78.8067 58.9284 79.5C58.5337 80.1827 57.995 80.7107 57.3124 81.084C56.6297 81.4573 55.8724 81.644 55.0404 81.644ZM55.0404 80.364C55.563 80.364 56.0537 80.2413 56.5124 79.996C56.971 79.7507 57.339 79.3827 57.6164 78.892C57.9044 78.4013 58.0484 77.804 58.0484 77.1C58.0484 76.396 57.9097 75.7987 57.6324 75.308C57.355 74.8173 56.9924 74.4547 56.5444 74.22C56.0964 73.9747 55.611 73.852 55.0884 73.852C54.555 73.852 54.0644 73.9747 53.6164 74.22C53.179 74.4547 52.827 74.8173 52.5604 75.308C52.2937 75.7987 52.1604 76.396 52.1604 77.1C52.1604 77.8147 52.2884 78.4173 52.5444 78.908C52.811 79.3987 53.163 79.7667 53.6004 80.012C54.0377 80.2467 54.5177 80.364 55.0404 80.364ZM62.9068 74.364C63.2054 73.8413 63.6428 73.4147 64.2188 73.084C64.7948 72.7533 65.4508 72.588 66.1868 72.588C66.9761 72.588 67.6854 72.7747 68.3148 73.148C68.9441 73.5213 69.4401 74.0493 69.8028 74.732C70.1654 75.404 70.3468 76.188 70.3468 77.084C70.3468 77.9693 70.1654 78.7587 69.8028 79.452C69.4401 80.1453 68.9387 80.684 68.2987 81.068C67.6694 81.452 66.9654 81.644 66.1868 81.644C65.4294 81.644 64.7628 81.4787 64.1868 81.148C63.6214 80.8173 63.1948 80.396 62.9068 79.884V81.5H61.4508V69.66H62.9068V74.364ZM68.8588 77.084C68.8588 76.4227 68.7254 75.8467 68.4588 75.356C68.1921 74.8653 67.8294 74.492 67.3708 74.236C66.9228 73.98 66.4268 73.852 65.8828 73.852C65.3494 73.852 64.8534 73.9853 64.3948 74.252C63.9468 74.508 63.5841 74.8867 63.3068 75.388C63.0401 75.8787 62.9068 76.4493 62.9068 77.1C62.9068 77.7613 63.0401 78.3427 63.3068 78.844C63.5841 79.3347 63.9468 79.7133 64.3948 79.98C64.8534 80.236 65.3494 80.364 65.8828 80.364C66.4268 80.364 66.9228 80.236 67.3708 79.98C67.8294 79.7133 68.1921 79.3347 68.4588 78.844C68.7254 78.3427 68.8588 77.756 68.8588 77.084ZM75.3673 81.644C74.6953 81.644 74.0926 81.532 73.5593 81.308C73.0259 81.0733 72.6046 80.7533 72.2953 80.348C71.9859 79.932 71.8153 79.4573 71.7833 78.924H73.2873C73.3299 79.3613 73.5326 79.7187 73.8953 79.996C74.2686 80.2733 74.7539 80.412 75.3513 80.412C75.9059 80.412 76.3433 80.2893 76.6633 80.044C76.9833 79.7987 77.1433 79.4893 77.1433 79.116C77.1433 78.732 76.9726 78.4493 76.6313 78.268C76.2899 78.076 75.7619 77.8893 75.0473 77.708C74.3966 77.5373 73.8633 77.3667 73.4473 77.196C73.0419 77.0147 72.6899 76.7533 72.3913 76.412C72.1033 76.06 71.9593 75.6013 71.9593 75.036C71.9593 74.588 72.0926 74.1773 72.3593 73.804C72.6259 73.4307 73.0046 73.1373 73.4953 72.924C73.9859 72.7 74.5459 72.588 75.1753 72.588C76.1459 72.588 76.9299 72.8333 77.5273 73.324C78.1246 73.8147 78.4446 74.4867 78.4873 75.34H77.0313C76.9993 74.8813 76.8126 74.5133 76.4713 74.236C76.1406 73.9587 75.6926 73.82 75.1273 73.82C74.6046 73.82 74.1886 73.932 73.8793 74.156C73.5699 74.38 73.4153 74.6733 73.4153 75.036C73.4153 75.324 73.5059 75.564 73.6873 75.756C73.8793 75.9373 74.1139 76.0867 74.3913 76.204C74.6793 76.3107 75.0739 76.4333 75.5753 76.572C76.2046 76.7427 76.7166 76.9133 77.1113 77.084C77.5059 77.244 77.8419 77.4893 78.1193 77.82C78.4073 78.1507 78.5566 78.5827 78.5673 79.116C78.5673 79.596 78.4339 80.028 78.1673 80.412C77.9006 80.796 77.5219 81.1 77.0313 81.324C76.5513 81.5373 75.9966 81.644 75.3673 81.644ZM88.7123 81.644C87.8909 81.644 87.1443 81.4573 86.4723 81.084C85.8109 80.7107 85.2883 80.1827 84.9043 79.5C84.5309 78.8067 84.3443 78.0067 84.3443 77.1C84.3443 76.204 84.5363 75.4147 84.9203 74.732C85.3149 74.0387 85.8483 73.5107 86.5203 73.148C87.1923 72.7747 87.9443 72.588 88.7763 72.588C89.6083 72.588 90.3603 72.7747 91.0323 73.148C91.7043 73.5107 92.2323 74.0333 92.6163 74.716C93.0109 75.3987 93.2083 76.1933 93.2083 77.1C93.2083 78.0067 93.0056 78.8067 92.6003 79.5C92.2056 80.1827 91.6669 80.7107 90.9843 81.084C90.3016 81.4573 89.5443 81.644 88.7123 81.644ZM88.7123 80.364C89.2349 80.364 89.7256 80.2413 90.1843 79.996C90.6429 79.7507 91.0109 79.3827 91.2883 78.892C91.5763 78.4013 91.7203 77.804 91.7203 77.1C91.7203 76.396 91.5816 75.7987 91.3043 75.308C91.0269 74.8173 90.6643 74.4547 90.2163 74.22C89.7683 73.9747 89.2829 73.852 88.7603 73.852C88.2269 73.852 87.7363 73.9747 87.2883 74.22C86.8509 74.4547 86.4989 74.8173 86.2323 75.308C85.9656 75.7987 85.8323 76.396 85.8323 77.1C85.8323 77.8147 85.9603 78.4173 86.2163 78.908C86.4829 79.3987 86.8349 79.7667 87.2723 80.012C87.7096 80.2467 88.1896 80.364 88.7123 80.364ZM98.6906 73.932H96.8506V81.5H95.3946V73.932H94.2586V72.732H95.3946V72.108C95.3946 71.1267 95.6453 70.412 96.1466 69.964C96.6586 69.5053 97.4746 69.276 98.5946 69.276V70.492C97.9546 70.492 97.5013 70.62 97.2346 70.876C96.9786 71.1213 96.8506 71.532 96.8506 72.108V72.732H98.6906V73.932ZM103.956 73.932H102.116V81.5H100.66V73.932H99.5243V72.732H100.66V72.108C100.66 71.1267 100.911 70.412 101.412 69.964C101.924 69.5053 102.74 69.276 103.86 69.276V70.492C103.22 70.492 102.767 70.62 102.5 70.876C102.244 71.1213 102.116 71.532 102.116 72.108V72.732H103.956V73.932ZM113.654 76.78C113.654 77.0573 113.638 77.3507 113.606 77.66H106.598C106.651 78.524 106.945 79.2013 107.478 79.692C108.022 80.172 108.678 80.412 109.446 80.412C110.075 80.412 110.598 80.268 111.014 79.98C111.441 79.6813 111.739 79.2867 111.91 78.796H113.478C113.243 79.6387 112.774 80.3267 112.07 80.86C111.366 81.3827 110.491 81.644 109.446 81.644C108.614 81.644 107.867 81.4573 107.206 81.084C106.555 80.7107 106.043 80.1827 105.67 79.5C105.297 78.8067 105.11 78.0067 105.11 77.1C105.11 76.1933 105.291 75.3987 105.654 74.716C106.017 74.0333 106.523 73.5107 107.174 73.148C107.835 72.7747 108.593 72.588 109.446 72.588C110.278 72.588 111.014 72.7693 111.654 73.132C112.294 73.4947 112.785 73.996 113.126 74.636C113.478 75.2653 113.654 75.98 113.654 76.78ZM112.15 76.476C112.15 75.9213 112.027 75.4467 111.782 75.052C111.537 74.6467 111.201 74.3427 110.774 74.14C110.358 73.9267 109.894 73.82 109.382 73.82C108.646 73.82 108.017 74.0547 107.494 74.524C106.982 74.9933 106.689 75.644 106.614 76.476H112.15ZM117.032 74.156C117.288 73.6547 117.65 73.2653 118.12 72.988C118.6 72.7107 119.181 72.572 119.864 72.572V74.076H119.48C117.848 74.076 117.032 74.9613 117.032 76.732V81.5H115.576V72.732H117.032V74.156ZM129.545 76.78C129.545 77.0573 129.529 77.3507 129.497 77.66H122.489C122.542 78.524 122.835 79.2013 123.369 79.692C123.913 80.172 124.569 80.412 125.337 80.412C125.966 80.412 126.489 80.268 126.905 79.98C127.331 79.6813 127.63 79.2867 127.801 78.796H129.369C129.134 79.6387 128.665 80.3267 127.961 80.86C127.257 81.3827 126.382 81.644 125.337 81.644C124.505 81.644 123.758 81.4573 123.097 81.084C122.446 80.7107 121.934 80.1827 121.561 79.5C121.187 78.8067 121.001 78.0067 121.001 77.1C121.001 76.1933 121.182 75.3987 121.545 74.716C121.907 74.0333 122.414 73.5107 123.065 73.148C123.726 72.7747 124.483 72.588 125.337 72.588C126.169 72.588 126.905 72.7693 127.545 73.132C128.185 73.4947 128.675 73.996 129.017 74.636C129.369 75.2653 129.545 75.98 129.545 76.78ZM128.041 76.476C128.041 75.9213 127.918 75.4467 127.673 75.052C127.427 74.6467 127.091 74.3427 126.665 74.14C126.249 73.9267 125.785 73.82 125.273 73.82C124.537 73.82 123.907 74.0547 123.385 74.524C122.873 74.9933 122.579 75.644 122.505 76.476H128.041ZM130.922 77.084C130.922 76.188 131.104 75.404 131.466 74.732C131.829 74.0493 132.325 73.5213 132.954 73.148C133.594 72.7747 134.309 72.588 135.098 72.588C135.781 72.588 136.416 72.748 137.002 73.068C137.589 73.3773 138.037 73.788 138.346 74.3V69.66H139.818V81.5H138.346V79.852C138.058 80.3747 137.632 80.8067 137.066 81.148C136.501 81.4787 135.84 81.644 135.082 81.644C134.304 81.644 133.594 81.452 132.954 81.068C132.325 80.684 131.829 80.1453 131.466 79.452C131.104 78.7587 130.922 77.9693 130.922 77.084ZM138.346 77.1C138.346 76.4387 138.213 75.8627 137.946 75.372C137.68 74.8813 137.317 74.508 136.858 74.252C136.41 73.9853 135.914 73.852 135.37 73.852C134.826 73.852 134.33 73.98 133.882 74.236C133.434 74.492 133.077 74.8653 132.81 75.356C132.544 75.8467 132.41 76.4227 132.41 77.084C132.41 77.756 132.544 78.3427 132.81 78.844C133.077 79.3347 133.434 79.7133 133.882 79.98C134.33 80.236 134.826 80.364 135.37 80.364C135.914 80.364 136.41 80.236 136.858 79.98C137.317 79.7133 137.68 79.3347 137.946 78.844C138.213 78.3427 138.346 77.7613 138.346 77.1Z" fill="#313033"/>
<defs>
<linearGradient id="paint0_linear_4561_7108" x1="0" y1="51" x2="183" y2="51" gradientUnits="userSpaceOnUse">
<stop stop-color="#7D2F99"/>
<stop offset="0.27" stop-color="#FF5FCC"/>
<stop offset="0.53" stop-color="#451A83"/>
<stop offset="0.8" stop-color="#B543AF"/>
<stop offset="1" stop-color="#451A83"/>
</linearGradient>
</defs>
</svg>
