<svg width="64" height="64" viewBox="0 0 64 64" fill="none" xmlns="http://www.w3.org/2000/svg">
<g filter="url(#filter0_d_4525_5666)">
<rect x="4" width="56" height="56" rx="8" fill="#99BE20" shape-rendering="crispEdges"/>
<path fill-rule="evenodd" clip-rule="evenodd" d="M38 16.75C38 16.1533 38.2371 15.581 38.659 15.159C39.081 14.7371 39.6533 14.5 40.25 14.5H43.25C43.8467 14.5 44.419 14.7371 44.841 15.159C45.2629 15.581 45.5 16.1533 45.5 16.75V39.25C45.5 39.8467 45.2629 40.419 44.841 40.841C44.419 41.2629 43.8467 41.5 43.25 41.5H40.25C39.6533 41.5 39.081 41.2629 38.659 40.841C38.2371 40.419 38 39.8467 38 39.25V16.75ZM40.25 16C40.0511 16 39.8603 16.079 39.7197 16.2197C39.579 16.3603 39.5 16.5511 39.5 16.75V39.25C39.5 39.4489 39.579 39.6397 39.7197 39.7803C39.8603 39.921 40.0511 40 40.25 40H43.25C43.4489 40 43.6397 39.921 43.7803 39.7803C43.921 39.6397 44 39.4489 44 39.25V16.75C44 16.5511 43.921 16.3603 43.7803 16.2197C43.6397 16.079 43.4489 16 43.25 16H40.25ZM28.25 25.75C28.25 25.1533 28.4871 24.581 28.909 24.159C29.331 23.7371 29.9033 23.5 30.5 23.5H33.5C34.0967 23.5 34.669 23.7371 35.091 24.159C35.5129 24.581 35.75 25.1533 35.75 25.75V39.25C35.75 39.8467 35.5129 40.419 35.091 40.841C34.669 41.2629 34.0967 41.5 33.5 41.5H30.5C29.9033 41.5 29.331 41.2629 28.909 40.841C28.4871 40.419 28.25 39.8467 28.25 39.25V25.75ZM32 25L29.75 27.25V28.879L33.6193 25.009C33.5798 25.0028 33.5399 24.9998 33.5 25H32ZM34.25 26.5L29.75 31V32.629L34.25 28.129V26.5ZM34.25 30.25L29.75 34.75V36.379L34.25 31.879V30.25ZM34.25 34L29.75 38.5V39.25C29.75 39.49 29.8625 39.7037 30.038 39.841L34.25 35.629V34ZM34.25 37.75L32 40H33.5C33.6989 40 33.8897 39.921 34.0303 39.7803C34.171 39.6397 34.25 39.4489 34.25 39.25V37.75ZM18.5 34.75C18.5 34.1533 18.7371 33.581 19.159 33.159C19.581 32.7371 20.1533 32.5 20.75 32.5H23.75C24.3467 32.5 24.919 32.7371 25.341 33.159C25.7629 33.581 26 34.1533 26 34.75V39.25C26 39.8467 25.7629 40.419 25.341 40.841C24.919 41.2629 24.3467 41.5 23.75 41.5H20.75C20.1533 41.5 19.581 41.2629 19.159 40.841C18.7371 40.419 18.5 39.8467 18.5 39.25V34.75ZM20.75 34C20.5511 34 20.3603 34.079 20.2197 34.2197C20.079 34.3603 20 34.5511 20 34.75V36.379L22.379 34H20.75ZM24.2802 34.2197L20 38.5V39.25C20 39.49 20.1125 39.7037 20.288 39.841L24.5 35.629V34.75C24.5001 34.6515 24.4807 34.5539 24.443 34.463C24.4053 34.372 24.35 34.2893 24.2802 34.2197ZM24.5 37.75L22.25 40H23.75C23.9489 40 24.1397 39.921 24.2803 39.7803C24.421 39.6397 24.5 39.4489 24.5 39.25V37.75Z" fill="white"/>
</g>
<defs>
<filter id="filter0_d_4525_5666" x="0" y="0" width="64" height="64" filterUnits="userSpaceOnUse" color-interpolation-filters="sRGB">
<feFlood flood-opacity="0" result="BackgroundImageFix"/>
<feColorMatrix in="SourceAlpha" type="matrix" values="0 0 0 0 0 0 0 0 0 0 0 0 0 0 0 0 0 0 127 0" result="hardAlpha"/>
<feOffset dy="4"/>
<feGaussianBlur stdDeviation="2"/>
<feComposite in2="hardAlpha" operator="out"/>
<feColorMatrix type="matrix" values="0 0 0 0 0 0 0 0 0 0 0 0 0 0 0 0 0 0 0.25 0"/>
<feBlend mode="normal" in2="BackgroundImageFix" result="effect1_dropShadow_4525_5666"/>
<feBlend mode="normal" in="SourceGraphic" in2="effect1_dropShadow_4525_5666" result="shape"/>
</filter>
</defs>
</svg>
